<?xml version="1.0" encoding="UTF-8"?><svg xmlns="http://www.w3.org/2000/svg" viewBox="0 0 885 574"><g style="isolation:isolate;"><g id="Lager_1"><path d="M790.5,36.86H64.92c-25.69,0-46.5,18.39-46.5,41.07v443.34c0,22.65,20.82,41.04,46.5,41.04H790.5c25.68,0,46.51-18.39,46.51-41.04V77.92c0-22.68-20.83-41.07-46.51-41.07Zm-29.14,480.95H110.2V43.37H761.37v474.43Z" style="fill:#71606e; mix-blend-mode:multiply; opacity:.2;"/><path d="M805.49,17.69H79.9c-25.69,0-46.5,18.39-46.5,41.07V502.1c0,22.65,20.82,41.04,46.5,41.04H805.49c25.68,0,46.51-18.39,46.51-41.04V58.76c0-22.68-20.83-41.07-46.51-41.07Zm-44.12,500.11H110.2V43.37H761.37v474.43Z" style="fill:#3d3d3d; fill-rule:evenodd;"/><path d="M805.49,17.69H79.9c-25.69,0-46.5,18.39-46.5,41.07V502.1c0,22.65,20.82,41.04,46.5,41.04H805.49c25.68,0,46.51-18.39,46.51-41.04V58.76c0-22.68-20.83-41.07-46.51-41.07Zm-44.12,500.11H110.2V43.37H761.37v474.43Z" style="fill:#313033; fill-rule:evenodd;"/><path d="M74.8,312.24c0-2.49,2.27-4.53,5.1-4.53s5.12,2.04,5.12,4.53-2.3,4.52-5.12,4.52-5.1-2.01-5.1-4.52Z" style="fill:#505052; fill-rule:evenodd;"/><path d="M74.8,289.66v-45.14c0-2.51,2.27-4.55,5.1-4.55s5.12,2.03,5.12,4.55v45.14c0,2.5-2.3,4.52-5.12,4.52s-5.1-2.02-5.1-4.52Z" style="fill:#505052; fill-rule:evenodd;"/><path d="M788.82,280.43c0-10.35,9.49-18.72,21.2-18.72s21.22,8.37,21.22,18.72-9.5,18.71-21.22,18.71-21.2-8.39-21.2-18.71Z" style="fill:#e8e9e8; fill-rule:evenodd;"/><path d="M788.82,280.43c0-10.35,9.49-18.72,21.2-18.72s21.22,8.37,21.22,18.72-9.5,18.71-21.22,18.71-21.2-8.39-21.2-18.71Z" style="fill:#505052; fill-rule:evenodd;"/></g></g></svg>