<?xml version="1.0" standalone="no"?><svg xmlns="http://www.w3.org/2000/svg" viewBox="0 0 1440 320"><path fill="#0099ff" fill-opacity="1" d="M0,192L30,181.3C60,171,120,149,180,128C240,107,300,85,360,85.3C420,85,480,107,540,106.7C600,107,660,85,720,74.7C780,64,840,64,900,74.7C960,85,1020,107,1080,117.3C1140,128,1200,128,1260,117.3C1320,107,1380,85,1410,74.7L1440,64L1440,0L1410,0C1380,0,1320,0,1260,0C1200,0,1140,0,1080,0C1020,0,960,0,900,0C840,0,780,0,720,0C660,0,600,0,540,0C480,0,420,0,360,0C300,0,240,0,180,0C120,0,60,0,30,0L0,0Z"></path></svg>